<svg width="28" height="30" viewBox="0 0 28 30" fill="none" xmlns="http://www.w3.org/2000/svg">
<path d="M21.9443 24.2901H20.9443V25.2901V28.107L13.4354 24.6556C12.9114 24.4148 12.3415 24.2901 11.7649 24.2901H3C1.89543 24.2901 1 23.3947 1 22.2901V3C1 1.89543 1.89543 1 3 1H24.3269C25.4314 1 26.3269 1.89543 26.3269 3V22.2901C26.3269 23.3947 25.4314 24.2901 24.3269 24.2901H21.9443Z" stroke="#73BF44" stroke-width="2"/>
<path d="M15.9173 17.4496H10.5623L9.64222 20.4264H7.45239L12.0345 5.83594H14.4635L19.0456 20.4264H16.8374L15.9173 17.4496ZM15.3284 15.5L13.249 8.72887L11.1512 15.5H15.3284Z" fill="#72BF44"/>
</svg>
