<svg width="29" height="30" viewBox="0 0 29 30" fill="none" xmlns="http://www.w3.org/2000/svg">
<path d="M22.7514 24.2901H21.7514V25.2901V28.13L13.8641 24.6333C13.3536 24.407 12.8014 24.2901 12.243 24.2901H3C1.89543 24.2901 1 23.3947 1 22.2901V3C1 1.89543 1.89543 1 3 1H25.332C26.4365 1 27.332 1.89543 27.332 3V22.2901C27.332 23.3947 26.4365 24.2901 25.332 24.2901H22.7514Z" stroke="#0086D4" stroke-width="2"/>
<path d="M17.674 21.3991L15.9307 18.924C15.502 19.0865 15.0304 19.1677 14.516 19.1677C13.592 19.1677 12.7394 18.8865 11.9583 18.3239C11.1866 17.7489 10.5722 16.9551 10.115 15.9426C9.66722 14.9176 9.44336 13.7675 9.44336 12.4925C9.44336 11.2174 9.66722 10.0736 10.115 9.06107C10.5722 8.04853 11.1866 7.261 11.9583 6.69847C12.7394 6.12345 13.592 5.83594 14.516 5.83594C15.4496 5.83594 16.3022 6.12345 17.0738 6.69847C17.8549 7.261 18.4694 8.04853 18.9171 9.06107C19.3648 10.0736 19.5887 11.2174 19.5887 12.4925C19.5887 13.6925 19.3887 14.7801 18.9886 15.7551C18.598 16.7176 18.055 17.4927 17.3596 18.0802L19.7459 21.3991H17.674ZM11.1152 12.4925C11.1152 13.455 11.2581 14.305 11.5439 15.0426C11.8392 15.7676 12.244 16.3301 12.7585 16.7301C13.2729 17.1176 13.8587 17.3114 14.516 17.3114C15.1733 17.3114 15.7592 17.1176 16.2736 16.7301C16.788 16.3301 17.1881 15.7676 17.4739 15.0426C17.7692 14.305 17.9169 13.455 17.9169 12.4925C17.9169 11.5299 17.7692 10.6861 17.4739 9.96111C17.1881 9.23608 16.788 8.6798 16.2736 8.29229C15.7592 7.90477 15.1733 7.71101 14.516 7.71101C13.8587 7.71101 13.2729 7.90477 12.7585 8.29229C12.244 8.6798 11.8392 9.23608 11.5439 9.96111C11.2581 10.6861 11.1152 11.5299 11.1152 12.4925Z" fill="#0086D4"/>
</svg>
